<svg aria-hidden="true" style="position: absolute; width: 0; height: 0; overflow: hidden;" version="1.1" xmlns="http://www.w3.org/2000/svg" xmlns:xlink="http://www.w3.org/1999/xlink">
<defs>
<symbol id="icon-heart" viewBox="0 0 36 32">
<path d="M17.012 3.581c1.971-2.196 4.732-3.488 7.655-3.581 5.167 0 9.356 4.259 9.356 9.514 0 6.221-6.801 13.038-10.88 17.127-0.367 0.368-0.712 0.714-1.028 1.036l-3.879 3.944c-0.239 0.243-0.563 0.38-0.902 0.381h-0.646c-0.338-0-0.663-0.137-0.902-0.381l-3.879-3.944c-0.316-0.321-0.661-0.668-1.028-1.036-4.079-4.089-10.88-10.906-10.88-17.127 0-5.254 4.189-9.514 9.356-9.514 2.923 0.093 5.684 1.384 7.655 3.581zM17.012 27.97l3.742-3.754c3.453-3.459 9.867-9.929 9.867-14.703 0-1.615-0.634-3.162-1.762-4.299s-2.655-1.769-4.243-1.755c-2.645 0.25-5.032 1.715-6.481 3.978-0.162 0.216-0.413 0.343-0.68 0.346h-0.766c-0.397-0.001-0.773-0.186-1.021-0.502-1.426-2.18-3.747-3.586-6.311-3.823-3.288 0-5.954 2.71-5.954 6.054 0 4.774 6.413 11.243 9.867 14.703l3.743 3.754z"></path>
</symbol>
<symbol id="icon-search" viewBox="0 0 34 32">
<path d="M25.029 21.836l6.754 6.764c0.302 0.336 0.287 0.849-0.034 1.167l-1.182 1.184c-0.159 0.16-0.374 0.25-0.6 0.25s-0.441-0.090-0.6-0.25l-6.754-6.764c-0.187-0.187-0.356-0.391-0.507-0.609l-1.266-1.691c-2.095 1.676-4.698 2.588-7.379 2.587-5.526 0.019-10.327-3.798-11.562-9.191s1.427-10.924 6.409-13.317 10.955-1.011 14.383 3.329c3.428 4.34 3.396 10.479-0.078 14.783l1.689 1.167c0.264 0.169 0.507 0.368 0.726 0.592zM5.020 12.637c0 4.669 3.78 8.455 8.443 8.455 2.239 0 4.387-0.891 5.97-2.476s2.473-3.736 2.473-5.978c0-4.669-3.78-8.455-8.443-8.455s-8.443 3.785-8.443 8.455z"></path>
<path d="M31.783 28.6l0.446-0.401-0.011-0.012-0.011-0.011-0.425 0.424zM25.029 21.836l-0.43 0.419 0.005 0.005 0.425-0.424zM31.749 29.766l-0.422-0.426-0.002 0.002 0.424 0.424zM30.568 30.95l-0.425-0.424-0.002 0.002 0.426 0.422zM29.368 30.95l0.426-0.422-0.002-0.002-0.425 0.424zM22.614 24.186v0zM22.108 23.577l0.494-0.341-0.007-0.010-0.007-0.009-0.48 0.36zM20.841 21.887l0.48-0.36-0.371-0.496-0.484 0.387 0.375 0.469zM13.462 24.474l0-0.6h-0.002l0.002 0.6zM1.9 15.282v0zM8.309 1.965v0zM22.692 5.295v0zM22.614 20.077l-0.467-0.377-0.406 0.503 0.532 0.367 0.341-0.494zM24.303 21.244l-0.341 0.494 0.017 0.011 0.324-0.505zM19.432 18.615v0zM32.208 28.176l-6.754-6.764-0.849 0.848 6.754 6.764 0.849-0.848zM32.172 30.192c0.548-0.543 0.573-1.42 0.058-1.994l-0.892 0.802c0.088 0.098 0.083 0.247-0.010 0.339l0.844 0.852zM30.992 31.374l1.182-1.184-0.849-0.848-1.182 1.184 0.849 0.848zM29.968 31.8c0.385 0 0.755-0.154 1.026-0.428l-0.853-0.844c-0.046 0.046-0.108 0.072-0.173 0.072v1.2zM28.942 31.372c0.271 0.274 0.64 0.428 1.026 0.428v-1.2c-0.065 0-0.127-0.026-0.173-0.072l-0.853 0.844zM22.19 24.61l6.754 6.764 0.849-0.848-6.754-6.764-0.849 0.848zM21.614 23.918c0.171 0.247 0.364 0.479 0.576 0.692l0.849-0.848c-0.161-0.162-0.308-0.338-0.437-0.526l-0.988 0.681zM20.361 22.246l1.267 1.691 0.96-0.719-1.267-1.691-0.96 0.719zM13.462 25.074c2.818 0.001 5.552-0.958 7.754-2.718l-0.749-0.937c-1.989 1.591-4.459 2.456-7.004 2.456l-0 1.2zM1.315 15.416c1.297 5.666 6.342 9.678 12.149 9.657l-0.004-1.2c-5.245 0.018-9.803-3.605-10.975-8.725l-1.17 0.268zM8.049 1.424c-5.235 2.515-8.031 8.326-6.734 13.992l1.17-0.268c-1.172-5.121 1.355-10.371 6.084-12.642l-0.52-1.082zM23.163 4.923c-3.602-4.56-9.878-6.013-15.114-3.498l0.52 1.082c4.729-2.272 10.398-0.959 13.652 3.16l0.942-0.744zM23.081 20.454c3.649-4.522 3.683-10.972 0.082-15.531l-0.942 0.744c3.254 4.12 3.224 9.948-0.074 14.034l0.934 0.754zM24.644 20.75l-1.688-1.167-0.682 0.987 1.689 1.167 0.682-0.987zM25.458 21.417c-0.251-0.257-0.53-0.484-0.832-0.678l-0.648 1.010c0.225 0.144 0.433 0.314 0.62 0.506l0.859-0.838zM13.462 20.491c-4.331 0-7.843-3.516-7.843-7.855h-1.2c0 5 4.048 9.055 9.043 9.055v-1.2zM19.008 18.191c-1.471 1.473-3.466 2.3-5.546 2.3v1.2c2.399 0 4.699-0.954 6.395-2.652l-0.849-0.848zM21.305 12.637c0 2.083-0.826 4.081-2.297 5.554l0.849 0.848c1.696-1.698 2.648-4.001 2.648-6.402h-1.2zM13.462 4.782c4.331 0 7.843 3.516 7.843 7.855h1.2c0-5-4.048-9.055-9.043-9.055v1.2zM5.62 12.637c0-4.339 3.512-7.855 7.843-7.855v-1.2c-4.995 0-9.043 4.055-9.043 9.055h1.2z"></path>
</symbol>
<symbol id="icon-personal" viewBox="0 0 32 32">
<path d="M23.275 8.727c0 4.017-3.257 7.273-7.275 7.273s-7.275-3.256-7.275-7.273 3.257-7.273 7.275-7.273c4.018 0 7.275 3.256 7.275 7.273zM20.365 8.727c0-2.41-1.954-4.364-4.365-4.364s-4.365 1.954-4.365 4.364 1.954 4.364 4.365 4.364c2.411 0 4.365-1.954 4.365-4.364zM30.39 28.436c0.227 0.45 0.204 0.986-0.059 1.415s-0.731 0.692-1.236 0.694h-26.19c-0.504-0.002-0.972-0.264-1.236-0.694s-0.286-0.965-0.059-1.415l2.75-5.513c1.233-2.461 3.751-4.014 6.504-4.015h10.272c2.753 0 5.27 1.554 6.504 4.015l2.75 5.513zM6.965 24.233l-1.702 3.404h21.476l-1.702-3.404c-0.738-1.478-2.247-2.412-3.899-2.415h-10.272c-1.652 0.002-3.161 0.937-3.899 2.415z"></path>
<path d="M27.64 22.924l0.651-0.325-0.001-0.001-0.65 0.326zM30.39 28.436l-0.651 0.325 0.001 0.003 0.649-0.327zM21.136 18.909v0zM10.864 18.909v-0.727h-0l0 0.727zM4.36 22.924l-0.65-0.326-0.001 0.001 0.651 0.325zM1.61 28.436l0.649 0.327 0.001-0.003-0.651-0.325zM1.669 29.852v0zM2.905 30.545l-0.002 0.727h0.002v-0.727zM29.095 30.545v0.727h0.002l-0.002-0.727zM5.262 27.636l-0.65-0.325-0.526 1.053h1.177v-0.727zM6.965 24.233v0zM26.738 27.636v0.727h1.177l-0.526-1.053-0.65 0.325zM25.035 24.233v0zM21.136 21.818l0.001-0.727h-0.001v0.727zM10.864 21.818v-0.727h-0.001l0.001 0.727zM16 16.727c4.419 0 8.002-3.582 8.002-8h-1.455c0 3.615-2.931 6.545-6.548 6.545v1.455zM7.998 8.727c0 4.418 3.583 8 8.002 8v-1.455c-3.616 0-6.548-2.931-6.548-6.545h-1.455zM16 0.727c-4.419 0-8.002 3.582-8.002 8h1.455c0-3.615 2.931-6.545 6.548-6.545v-1.455zM24.002 8.727c0-4.418-3.583-8-8.002-8v1.455c3.616 0 6.548 2.931 6.548 6.545h1.455zM16 5.091c2.009 0 3.638 1.628 3.638 3.636h1.455c0-2.812-2.28-5.091-5.092-5.091v1.455zM12.362 8.727c0-2.008 1.628-3.636 3.638-3.636v-1.455c-2.812 0-5.092 2.279-5.092 5.091h1.455zM16 12.364c-2.009 0-3.638-1.628-3.638-3.636h-1.455c0 2.812 2.28 5.091 5.092 5.091v-1.455zM19.638 8.727c0 2.008-1.628 3.636-3.638 3.636v1.455c2.812 0 5.092-2.279 5.092-5.091h-1.455zM26.989 23.248l2.75 5.513 1.302-0.649-2.75-5.513-1.302 0.649zM21.136 19.636c2.478 0 4.744 1.399 5.854 3.613l1.3-0.652c-1.357-2.707-4.126-4.416-7.154-4.416v1.455zM10.864 19.636h10.272v-1.455h-10.272v1.455zM5.010 23.249c1.11-2.215 3.376-3.613 5.854-3.613l-0-1.455c-3.028 0-5.797 1.709-7.154 4.416l1.3 0.652zM2.261 28.761l2.75-5.513-1.302-0.649-2.75 5.513 1.302 0.649zM2.289 29.471c-0.132-0.215-0.143-0.482-0.030-0.708l-1.299-0.655c-0.34 0.675-0.307 1.479 0.089 2.123l1.24-0.761zM2.907 29.818c-0.252-0.001-0.486-0.132-0.618-0.347l-1.24 0.761c0.396 0.645 1.097 1.038 1.853 1.040l0.004-1.455zM29.095 29.818h-26.19v1.455h26.19v-1.455zM29.711 29.471c-0.132 0.215-0.366 0.346-0.618 0.347l0.004 1.455c0.756-0.002 1.458-0.396 1.853-1.040l-1.24-0.761zM29.74 28.764c0.113 0.225 0.102 0.493-0.030 0.708l1.24 0.761c0.396-0.645 0.429-1.448 0.089-2.123l-1.299 0.655zM5.913 27.962l1.702-3.404-1.301-0.651-1.702 3.404 1.301 0.651zM26.738 26.909h-21.476v1.455h21.476v-1.455zM24.385 24.558l1.702 3.404 1.301-0.651-1.702-3.404-1.301 0.651zM21.135 22.545c1.377 0.002 2.635 0.781 3.25 2.012l1.301-0.65c-0.861-1.724-2.622-2.814-4.549-2.817l-0.002 1.455zM10.864 22.545h10.272v-1.455h-10.272v1.455zM7.615 24.558c0.615-1.231 1.873-2.010 3.25-2.012l-0.002-1.455c-1.927 0.003-3.688 1.093-4.549 2.817l1.301 0.65z"></path>
</symbol>
<symbol id="icon-big-basket" viewBox="0 0 32 32">
<path d="M10.31 23.736h0.001c0.001 0 0.002-0 0.004-0h16.997c0.418 0 0.786-0.278 0.901-0.68l3.75-13.125c0.081-0.283 0.024-0.587-0.153-0.822s-0.454-0.373-0.748-0.373h-22.915l-0.67-3.016c-0.095-0.429-0.476-0.734-0.915-0.734h-5.625c-0.518 0-0.938 0.42-0.938 0.938s0.42 0.938 0.938 0.938h4.873c0.119 0.534 3.207 14.432 3.385 15.232-0.996 0.433-1.695 1.426-1.695 2.58 0 1.551 1.262 2.813 2.813 2.813h17c0.518 0 0.938-0.42 0.938-0.938s-0.42-0.937-0.938-0.937h-17c-0.517 0-0.938-0.421-0.938-0.938s0.419-0.936 0.935-0.937zM29.82 10.61l-3.214 11.25h-15.541l-2.5-11.25h21.255z"></path>
</symbol>
<symbol id="icon-location" viewBox="0 0 32 32">
<path d="M16 0c-5.523 0-10 4.477-10 10 0 10 10 22 10 22s10-12 10-22c0-5.523-4.477-10-10-10zM16 16c-3.314 0-6-2.686-6-6s2.686-6 6-6 6 2.686 6 6-2.686 6-6 6z"></path>
</symbol>
<symbol id="icon-facebook" viewBox="0 0 32 32">
<path d="M19 6h5v-6h-5c-3.86 0-7 3.14-7 7v3h-4v6h4v16h6v-16h5l1-6h-6v-3c0-0.542 0.458-1 1-1z"></path>
</symbol>
<symbol id="icon-instagram" viewBox="0 0 32 32">
<path d="M16 2.881c4.275 0 4.781 0.019 6.462 0.094 1.563 0.069 2.406 0.331 2.969 0.55 0.744 0.288 1.281 0.638 1.837 1.194 0.563 0.563 0.906 1.094 1.2 1.838 0.219 0.563 0.481 1.412 0.55 2.969 0.075 1.688 0.094 2.194 0.094 6.463s-0.019 4.781-0.094 6.463c-0.069 1.563-0.331 2.406-0.55 2.969-0.288 0.744-0.637 1.281-1.194 1.837-0.563 0.563-1.094 0.906-1.837 1.2-0.563 0.219-1.413 0.481-2.969 0.55-1.688 0.075-2.194 0.094-6.463 0.094s-4.781-0.019-6.463-0.094c-1.563-0.069-2.406-0.331-2.969-0.55-0.744-0.288-1.281-0.637-1.838-1.194-0.563-0.563-0.906-1.094-1.2-1.837-0.219-0.563-0.481-1.413-0.55-2.969-0.075-1.688-0.094-2.194-0.094-6.463s0.019-4.781 0.094-6.463c0.069-1.563 0.331-2.406 0.55-2.969 0.288-0.744 0.638-1.281 1.194-1.838 0.563-0.563 1.094-0.906 1.838-1.2 0.563-0.219 1.412-0.481 2.969-0.55 1.681-0.075 2.188-0.094 6.463-0.094zM16 0c-4.344 0-4.887 0.019-6.594 0.094-1.7 0.075-2.869 0.35-3.881 0.744-1.056 0.412-1.95 0.956-2.837 1.85-0.894 0.888-1.438 1.781-1.85 2.831-0.394 1.019-0.669 2.181-0.744 3.881-0.075 1.713-0.094 2.256-0.094 6.6s0.019 4.887 0.094 6.594c0.075 1.7 0.35 2.869 0.744 3.881 0.413 1.056 0.956 1.95 1.85 2.837 0.887 0.887 1.781 1.438 2.831 1.844 1.019 0.394 2.181 0.669 3.881 0.744 1.706 0.075 2.25 0.094 6.594 0.094s4.888-0.019 6.594-0.094c1.7-0.075 2.869-0.35 3.881-0.744 1.050-0.406 1.944-0.956 2.831-1.844s1.438-1.781 1.844-2.831c0.394-1.019 0.669-2.181 0.744-3.881 0.075-1.706 0.094-2.25 0.094-6.594s-0.019-4.887-0.094-6.594c-0.075-1.7-0.35-2.869-0.744-3.881-0.394-1.063-0.938-1.956-1.831-2.844-0.887-0.887-1.781-1.438-2.831-1.844-1.019-0.394-2.181-0.669-3.881-0.744-1.712-0.081-2.256-0.1-6.6-0.1v0z"></path>
<path d="M16 7.781c-4.537 0-8.219 3.681-8.219 8.219s3.681 8.219 8.219 8.219 8.219-3.681 8.219-8.219c0-4.537-3.681-8.219-8.219-8.219zM16 21.331c-2.944 0-5.331-2.387-5.331-5.331s2.387-5.331 5.331-5.331c2.944 0 5.331 2.387 5.331 5.331s-2.387 5.331-5.331 5.331z"></path>
<path d="M26.462 7.456c0 1.060-0.859 1.919-1.919 1.919s-1.919-0.859-1.919-1.919c0-1.060 0.859-1.919 1.919-1.919s1.919 0.859 1.919 1.919z"></path>
</symbol>
<symbol id="icon-whatsapp" viewBox="0 0 32 32">
<path d="M27.281 4.65c-2.994-3-6.975-4.65-11.219-4.65-8.738 0-15.85 7.112-15.85 15.856 0 2.794 0.731 5.525 2.119 7.925l-2.25 8.219 8.406-2.206c2.319 1.262 4.925 1.931 7.575 1.931h0.006c0 0 0 0 0 0 8.738 0 15.856-7.113 15.856-15.856 0-4.238-1.65-8.219-4.644-11.219zM16.069 29.050v0c-2.369 0-4.688-0.637-6.713-1.837l-0.481-0.288-4.987 1.306 1.331-4.863-0.313-0.5c-1.325-2.094-2.019-4.519-2.019-7.012 0-7.269 5.912-13.181 13.188-13.181 3.519 0 6.831 1.375 9.319 3.862 2.488 2.494 3.856 5.8 3.856 9.325-0.006 7.275-5.919 13.188-13.181 13.188zM23.294 19.175c-0.394-0.2-2.344-1.156-2.706-1.288s-0.625-0.2-0.894 0.2c-0.262 0.394-1.025 1.288-1.256 1.556-0.231 0.262-0.462 0.3-0.856 0.1s-1.675-0.619-3.188-1.969c-1.175-1.050-1.975-2.35-2.206-2.744s-0.025-0.613 0.175-0.806c0.181-0.175 0.394-0.463 0.594-0.694s0.262-0.394 0.394-0.662c0.131-0.262 0.069-0.494-0.031-0.694s-0.894-2.15-1.219-2.944c-0.319-0.775-0.65-0.669-0.894-0.681-0.231-0.012-0.494-0.012-0.756-0.012s-0.694 0.1-1.056 0.494c-0.363 0.394-1.387 1.356-1.387 3.306s1.419 3.831 1.619 4.1c0.2 0.262 2.794 4.269 6.769 5.981 0.944 0.406 1.681 0.65 2.256 0.837 0.95 0.3 1.813 0.256 2.494 0.156 0.762-0.113 2.344-0.956 2.675-1.881s0.331-1.719 0.231-1.881c-0.094-0.175-0.356-0.275-0.756-0.475z"></path>
</symbol>
<symbol id="icon-shape" viewBox="0 0 32 32">
<path d="M16 32c-8.837 0-16-7.164-16-16s7.163-16 16-16c8.836 0 16 7.163 16 16s-7.164 16-16 16zM15.59 14.259l-4.053-4.053c-0.481-0.481-1.26-0.481-1.741 0s-0.481 1.26 0 1.741l4.053 4.053-4.053 4.053c-0.481 0.481-0.481 1.26 0 1.741s1.26 0.481 1.741 0l4.053-4.053 4.053 4.053c0.481 0.481 1.26 0.481 1.741 0s0.481-1.26 0-1.741l-4.053-4.053 4.053-4.053c0.481-0.481 0.481-1.26 0-1.741s-1.26-0.481-1.74 0l-4.053 4.053zM2.462 16c0 7.477 6.061 13.538 13.538 13.538s13.538-6.061 13.538-13.538c0-7.477-6.061-13.538-13.538-13.538s-13.538 6.061-13.538 13.538z"></path>
</symbol>
<symbol id="icon-lit-basket" viewBox="0 0 32 32">
<path d="M31.937 28.621l-2.604-24.5c0-1.54-1.193-2.788-2.667-2.788h-21.333c-1.473 0-2.667 1.248-2.667 2.788l-2.604 24.5c-0.039 0.191-0.063 0.387-0.063 0.591 0 1.54 1.193 2.788 2.667 2.788h26.667c1.473 0 2.667-1.248 2.667-2.788 0-0.204-0.024-0.4-0.063-0.591zM22.667 8.175v1.522c0 3.843-2.991 6.97-6.667 6.97s-6.667-3.127-6.667-6.97v-1.522c-0.775-0.287-1.333-1.054-1.333-1.963 0-1.154 0.896-2.091 2-2.091s2 0.937 2 2.091v3.485c0 2.306 1.795 4.182 4 4.182s4-1.876 4-4.182v-3.485c0-1.154 0.896-2.091 2-2.091s2 0.937 2 2.091c0 0.909-0.559 1.676-1.333 1.963z"></path>
</symbol>
<symbol id="icon-glass" viewBox="0 0 32 32">
<path d="M13.714 0c7.57 0 13.714 6.144 13.714 13.714s-6.144 13.714-13.714 13.714c-7.57 0-13.714-6.144-13.714-13.714s6.144-13.714 13.714-13.714zM13.714 24.381c5.893 0 10.667-4.774 10.667-10.667 0-5.894-4.774-10.667-10.667-10.667-5.894 0-10.667 4.773-10.667 10.667 0 5.893 4.773 10.667 10.667 10.667zM26.644 24.489l4.311 4.309-2.156 2.156-4.309-4.311 2.155-2.155z"></path>
</symbol>
<symbol id="icon-trash" viewBox="0 0 23 32">
<path stroke-linejoin="round" stroke-linecap="round" stroke-miterlimit="4" stroke-width="2.9091" d="M5.818 7.273v-2.909c0-0.772 0.306-1.511 0.852-2.057s1.285-0.852 2.057-0.852h5.818c0.771 0 1.511 0.306 2.057 0.852s0.852 1.286 0.852 2.057v2.909M21.818 7.273v20.364c0 0.771-0.306 1.511-0.852 2.057s-1.286 0.852-2.057 0.852h-14.545c-0.772 0-1.511-0.306-2.057-0.852s-0.852-1.286-0.852-2.057v-20.364h20.364z"></path>
</symbol>
<symbol id="icon-arrow-r" viewBox="0 0 18 32">
<path stroke-linejoin="round" stroke-linecap="round" stroke-miterlimit="4" stroke-width="3.4286" d="M2.286 29.714l13.714-13.714-13.714-13.714"></path>
</symbol>
<symbol id="icon-arrow-l" viewBox="0 0 17 32">
<path stroke-linejoin="round" stroke-linecap="round" stroke-miterlimit="4" stroke-width="3.2" d="M15.467 2.133l-13.867 13.867 13.867 13.867"></path>
</symbol>
</defs>
</svg>

